# xmcd
#
# Track frame offsets:
#	150
#	16567
#	36127
#	53635
#	72515
#	84427
#	106292
#	122122
#	141670
#	160295
#	181685
#
# Disc length: 3130 seconds
#
# Revision: 1
# Processed by: cddbd v1.4PL0 Copyright (c) Steve Scherf et al.
# Submitted via: audiograbber 1.81.02
#
DISCID=8c0c380b
DTITLE=Jonathan Kalb - Shadow of a Man
DYEAR=1998
DGENRE=
TTITLE0=Hamburg Rain
TTITLE1=Shadow of a Man
TTITLE2=Blues Survivor
TTITLE3=Silver Wind
TTITLE4=Mr. Shuffle
TTITLE5=Going to Dallas
TTITLE6=Late in the Evening
TTITLE7=Joker's Running Wild
TTITLE8=Home of the Blues
TTITLE9=Time is Always Right for the blues
TTITLE10=Gateway to Hell (live)
EXTD=
EXTT0=
EXTT1=
EXTT2=
EXTT3=
EXTT4=
EXTT5=
EXTT6=
EXTT7=
EXTT8=
EXTT9=
EXTT10=
PLAYORDER=
